<svg width="65" height="66" viewBox="0 0 65 66" fill="none" xmlns="http://www.w3.org/2000/svg">
<path d="M23.924 38.0094L27.1781 33.911L27.8094 33.1154L27.3074 32.2102L25.1137 28.2579C24.385 26.9389 23.641 25.6291 22.9017 24.3147C22.1623 23.0018 21.423 21.6889 20.67 20.3821C20.3337 19.7964 19.9991 19.2107 19.6644 18.6235L20.1573 18.6159L23.1877 18.555L26.2181 18.485L28.5792 18.4196L30.4063 21.3983L32.6487 24.9962L33.2922 26.0292L34.0711 25.2001C34.926 24.2888 35.7886 23.3851 36.6375 22.4678C37.491 21.555 38.3398 20.6377 39.1857 19.7158L41.708 16.9379C42.1294 16.4769 42.5432 16.0053 42.9585 15.5368C43.3738 15.0682 43.7891 14.5996 44.1984 14.125C43.71 14.519 43.2293 14.9191 42.7486 15.3192C42.2678 15.7193 41.784 16.1164 41.3094 16.5241L38.4524 18.9566C37.5046 19.7721 36.5599 20.592 35.6213 21.4151C34.9808 21.9703 34.3464 22.5332 33.712 23.0946L32.282 20.3319L30.3074 16.5819L29.994 15.9871L29.2486 15.9658L26.2181 15.8821L23.1877 15.8121L20.1573 15.7513L17.1269 15.7041L14.635 15.6646L15.8353 17.9054C16.5472 19.2335 17.279 20.551 18.0016 21.8745C18.7227 23.198 19.4544 24.5155 20.1877 25.8314C20.921 27.1488 21.6482 28.4678 22.3921 29.7792L24.1172 32.8354L21.569 36.1762L18.4215 40.3567C16.3358 43.1544 14.2577 45.9582 12.2115 48.7863C10.1593 51.6098 8.13294 54.4531 6.13243 57.3177C5.13142 58.7492 4.13801 60.1869 3.15981 61.6351C2.17553 63.0788 1.2019 64.5317 0.248047 65.9997C1.4377 64.7158 2.60606 63.4151 3.76377 62.1052C4.92756 60.8015 6.07766 59.4855 7.21863 58.1635C9.50515 55.5226 11.7628 52.8588 13.996 50.1767C16.2354 47.4992 18.4428 44.7959 20.6426 42.088L23.924 38.0094Z" fill="#0052CC"/>
<path d="M60.7807 3.89452C59.6169 5.19828 58.4668 6.5142 57.3259 7.83621C55.0393 10.4772 52.7817 13.141 50.5485 15.823C48.3091 18.5005 46.1017 21.2039 43.9019 23.9118L40.622 27.9904L37.3679 32.0887L36.7366 32.8844L37.2386 33.7896L39.4323 37.7419C40.161 39.0609 40.905 40.3707 41.6443 41.6851C42.3837 42.998 43.123 44.3109 43.8761 45.6176C44.2123 46.2034 44.5469 46.789 44.8816 47.3763L44.3887 47.3839L41.3583 47.4447L38.3279 47.5147L35.9668 47.5801L34.1397 44.6014L31.8974 41.0035L31.2538 39.9706L30.4749 40.7997C29.62 41.711 28.7574 42.6146 27.9085 43.5319C27.0551 44.4447 26.2062 45.3621 25.3603 46.284L22.838 49.0619C22.4166 49.5228 22.0028 49.9944 21.5875 50.463C21.1722 50.9315 20.7569 51.4001 20.3477 51.8747C20.836 51.4807 21.3167 51.0806 21.7975 50.6805C22.2782 50.2804 22.762 49.8834 23.2366 49.4757L26.0936 47.0431C27.0414 46.2277 27.9861 45.4077 28.9247 44.5847C29.5652 44.0294 30.1996 43.4665 30.834 42.9052L32.264 45.6679L34.2386 49.4178L34.552 50.0127L35.2975 50.034L38.3279 50.1176L41.3583 50.1876L44.3887 50.2485L47.4192 50.2956L49.911 50.3352L48.7107 48.0943C47.9988 46.7662 47.267 45.4488 46.5444 44.1253C45.8233 42.8017 45.0916 41.4843 44.3583 40.1684C43.625 38.8509 42.8979 37.5319 42.1539 36.2206L40.4288 33.1643L42.977 29.8235L46.1245 25.643C48.2102 22.8453 50.2883 20.0416 52.3345 17.2135C54.3867 14.39 56.4131 11.5467 58.4136 8.68205C59.4146 7.25051 60.4065 5.81288 61.3862 4.3646C62.3705 2.92089 63.3441 1.46805 64.298 0C63.1068 1.28398 61.9384 2.58469 60.7807 3.89452Z" fill="#0052CC"/>
</svg>
