<svg width="326" height="200" viewBox="0 0 326 200" fill="none" xmlns="http://www.w3.org/2000/svg">
<g clip-path="url(#clip0_3806_27593)">
<path opacity="0.2" d="M183.764 200C230.998 200 269.29 198.858 269.29 197.45C269.29 196.042 230.998 194.9 183.764 194.9C136.529 194.9 98.2373 196.042 98.2373 197.45C98.2373 198.858 136.529 200 183.764 200Z" fill="#0B2252"/>
<path d="M235.631 9.84454C236.828 8.64557 238.482 7.90292 240.311 7.90292H246.894C247.875 3.38441 251.887 0 256.691 0C261.494 0 265.509 3.38441 266.489 7.90292H268.258C270.087 7.90292 271.742 8.64557 272.938 9.84454C274.135 11.0435 274.877 12.701 274.877 14.5331C274.877 16.5574 273.97 18.3715 272.541 19.5884C271.386 20.5704 269.89 21.1632 268.258 21.1632H240.311C238.482 21.1632 236.828 20.4205 235.631 19.2216C234.434 18.0226 233.692 16.3651 233.692 14.5331C233.69 12.7033 234.432 11.0457 235.631 9.84454Z" fill="#E9F3FC"/>
<path d="M155.158 19.8322C154.033 18.7048 152.478 18.0069 150.761 18.0069H144.576C143.653 13.7613 139.884 10.5804 135.369 10.5804C130.853 10.5804 127.084 13.7613 126.162 18.0069H124.5C122.783 18.0069 121.229 18.7048 120.103 19.8322C118.978 20.9596 118.281 22.5165 118.281 24.2366C118.281 26.1402 119.132 27.8425 120.476 28.9856C121.562 29.9094 122.966 30.4664 124.503 30.4664H150.761C152.478 30.4664 154.033 29.7685 155.158 28.6411C156.283 27.5137 156.98 25.9568 156.98 24.2366C156.98 22.5165 156.283 20.9596 155.158 19.8322Z" fill="#E9F3FC"/>
<path d="M326 104.263V139.539C293.985 133.987 250.952 128.909 200.616 128.909C89.5035 128.909 2.35613 153.645 2.35613 153.645C-4.11081 139.796 3.05508 99.9105 19.9214 90.5737C36.7899 81.237 51.4366 99.9105 64.7523 93.2423C78.068 86.5719 65.6076 27.6121 86.0579 23.8184C106.504 20.0246 119.382 57.9577 144.374 57.9577C169.369 57.9577 165.582 20.0246 194.808 18.5058C224.032 16.9891 223.262 57.3426 240.84 57.3426C258.421 57.3426 251.293 41.1609 278.851 40.6845C306.412 40.208 314.013 97.7989 325.815 104.165C325.877 104.201 325.938 104.232 326 104.263Z" fill="url(#paint0_linear_3806_27593)"/>
<path d="M251.137 152.835H123.661C119.032 152.835 115.28 149.077 115.28 144.44V68.7597C115.28 64.1226 119.032 60.3646 123.661 60.3646H251.135C255.764 60.3646 259.516 64.1226 259.516 68.7597V144.438C259.518 149.075 255.764 152.835 251.137 152.835Z" fill="white"/>
<path d="M252.813 153.641H121.986C117.846 153.641 114.477 150.265 114.477 146.118V67.082C114.477 62.9348 117.844 59.5593 121.986 59.5593H252.815C256.955 59.5593 260.325 62.9326 260.325 67.082V146.12C260.322 150.265 256.953 153.641 252.813 153.641ZM121.986 61.1699C118.733 61.1699 116.084 63.8206 116.084 67.082V146.12C116.084 149.379 118.731 152.032 121.986 152.032H252.815C256.068 152.032 258.717 149.381 258.717 146.12V67.082C258.717 63.8228 256.071 61.1699 252.815 61.1699H121.986Z" fill="#E3ECF5"/>
<path d="M174.843 87.5495C178 84.183 182.335 82.4987 187.846 82.4987C192.944 82.4987 197.026 83.9392 200.092 86.8203C203.158 89.7014 204.692 93.3811 204.692 97.8638C204.692 100.577 204.136 102.78 203.024 104.469C201.912 106.158 199.632 108.643 196.189 111.92C193.683 114.303 192.051 116.318 191.296 117.969C190.539 119.62 190.162 122.06 190.162 125.286H183.335C183.335 121.624 183.771 118.674 184.639 116.432C185.508 114.191 187.442 111.625 190.441 108.731L193.569 105.697C194.507 104.827 195.269 103.919 195.854 102.971C196.914 101.306 197.446 99.5773 197.446 97.7855C197.446 95.2757 196.682 93.0992 195.155 91.2561C193.627 89.4129 191.104 88.4913 187.58 88.4913C183.221 88.4913 180.207 90.0795 178.536 93.2536C177.596 95.0207 177.062 97.5685 176.931 100.897H170.106C170.106 95.3652 171.685 90.9161 174.843 87.5495ZM183.181 131.661H190.811V139.649H183.181V131.661Z" fill="#58CFAA"/>
<path d="M246.615 72.8532H106.839C106.395 72.8532 106.035 72.493 106.035 72.0479C106.035 71.6028 106.395 71.2426 106.839 71.2426H246.615C247.06 71.2426 247.419 71.6028 247.419 72.0479C247.419 72.4908 247.06 72.8532 246.615 72.8532Z" fill="#E3ECF5"/>
<path d="M124.508 66.8228C124.652 65.9363 124.051 65.101 123.166 64.9571C122.281 64.8132 121.447 65.4152 121.303 66.3018C121.159 67.1883 121.76 68.0237 122.645 68.1676C123.531 68.3114 124.364 67.7094 124.508 66.8228Z" fill="#E3ECF5"/>
<path d="M131.037 66.9459C131.243 66.0718 130.703 65.196 129.83 64.9896C128.957 64.7832 128.083 65.3244 127.877 66.1985C127.671 67.0726 128.211 67.9484 129.084 68.1548C129.956 68.3612 130.831 67.82 131.037 66.9459Z" fill="#E3ECF5"/>
<path d="M137.612 66.823C137.755 65.9364 137.154 65.1011 136.269 64.9572C135.384 64.8133 134.55 65.4154 134.407 66.3019C134.263 67.1885 134.864 68.0238 135.749 68.1677C136.634 68.3116 137.468 67.7095 137.612 66.823Z" fill="#E3ECF5"/>
<path d="M76.2655 139.005C73.0633 138.908 69.5864 137.781 69.6624 132.627C69.7383 127.473 73.4742 126.67 73.8538 122.816C74.2357 118.96 74.2535 115.372 76.2633 115.334C78.2752 115.296 77.0024 116.944 77.9381 118.732C78.8737 120.519 80.6892 122.807 80.3386 126.149C79.988 129.491 82.3617 130.771 82.2367 133.502C82.1139 136.231 80.41 139.13 76.2655 139.005Z" fill="#DAEEFF"/>
<path d="M77.4492 125.845C77.3934 125.794 77.3063 125.796 77.2527 125.852C77.1991 125.908 77.2013 125.995 77.2571 126.049C77.2661 126.058 78.0923 126.89 78.0075 129.739C77.9338 132.205 76.6587 136.016 76.2545 137.168C75.8749 136.271 75.3858 135.28 74.975 134.446C74.6958 133.882 74.4569 133.397 74.3251 133.09C73.8495 131.97 74.573 129.614 74.5819 129.592C74.6043 129.518 74.5641 129.44 74.4904 129.417C74.4167 129.395 74.3385 129.435 74.3162 129.509C74.2849 129.61 73.5547 131.985 74.0706 133.202C74.2045 133.518 74.4457 134.005 74.7271 134.573C75.4774 136.092 76.614 138.387 76.5962 139.28C76.5716 140.519 76.422 142.295 76.422 142.313C76.4153 142.389 76.4733 142.458 76.5493 142.465C76.5537 142.465 76.5582 142.465 76.5604 142.465C76.6319 142.465 76.6944 142.409 76.6989 142.338C76.7011 142.32 76.8507 140.532 76.8753 139.286C76.8842 138.886 76.6944 138.266 76.4153 137.56C76.6006 137.052 78.2062 132.558 78.2888 129.751C78.3781 126.747 77.4871 125.879 77.4492 125.845Z" fill="#6AC1FF"/>
<path d="M313.917 125.686C311.187 125.603 308.223 124.644 308.288 120.248C308.353 115.855 311.537 115.171 311.863 111.885C312.189 108.596 312.203 105.539 313.917 105.505C315.632 105.471 314.547 106.878 315.344 108.402C316.141 109.925 317.689 111.876 317.39 114.725C317.09 117.575 319.114 118.665 319.009 120.993C318.901 123.322 317.45 125.791 313.917 125.686Z" fill="#DAEEFF"/>
<path d="M314.927 114.466C314.878 114.421 314.804 114.423 314.76 114.47C314.715 114.517 314.717 114.593 314.764 114.638C314.771 114.645 315.476 115.354 315.403 117.785C315.34 119.886 314.253 123.136 313.909 124.118C313.585 123.353 313.17 122.51 312.817 121.798C312.58 121.318 312.375 120.904 312.263 120.642C311.857 119.687 312.475 117.678 312.482 117.658C312.502 117.595 312.466 117.528 312.404 117.508C312.341 117.488 312.274 117.524 312.254 117.586C312.228 117.671 311.605 119.698 312.044 120.734C312.158 121.002 312.364 121.418 312.603 121.904C313.243 123.199 314.21 125.156 314.195 125.917C314.175 126.972 314.047 128.487 314.045 128.502C314.038 128.567 314.088 128.625 314.155 128.632C314.159 128.632 314.161 128.632 314.166 128.632C314.226 128.632 314.28 128.585 314.284 128.523C314.286 128.507 314.414 126.984 314.434 125.921C314.44 125.581 314.28 125.051 314.043 124.449C314.199 124.017 315.568 120.183 315.639 117.792C315.718 115.235 314.958 114.497 314.927 114.466Z" fill="#6AC1FF"/>
<path d="M100.584 117.584C98.7058 117.528 96.667 116.866 96.7117 113.844C96.7563 110.822 98.9469 110.352 99.1703 108.091C99.3936 105.829 99.4047 103.724 100.584 103.702C101.763 103.68 101.017 104.646 101.566 105.695C102.116 106.744 103.179 108.084 102.973 110.044C102.768 112.003 104.159 112.752 104.085 114.354C104.014 115.958 103.013 117.656 100.584 117.584Z" fill="#DAEEFF"/>
<path d="M101.278 109.867C101.244 109.836 101.193 109.838 101.162 109.871C101.13 109.905 101.133 109.956 101.164 109.988C101.168 109.992 101.653 110.48 101.604 112.153C101.561 113.598 100.813 115.833 100.577 116.508C100.356 115.983 100.068 115.401 99.8264 114.913C99.6634 114.582 99.5227 114.298 99.4445 114.117C99.1654 113.459 99.5897 112.079 99.5941 112.066C99.6075 112.023 99.583 111.976 99.5405 111.963C99.4981 111.949 99.4512 111.974 99.4378 112.017C99.4199 112.075 98.9912 113.468 99.2927 114.182C99.3708 114.365 99.5137 114.654 99.6767 114.985C100.117 115.875 100.782 117.222 100.773 117.745C100.76 118.472 100.67 119.515 100.67 119.524C100.666 119.568 100.699 119.609 100.744 119.613C100.746 119.613 100.749 119.613 100.751 119.613C100.793 119.613 100.829 119.582 100.833 119.537C100.833 119.526 100.923 118.479 100.936 117.747C100.941 117.513 100.831 117.148 100.666 116.734C100.773 116.437 101.716 113.802 101.765 112.155C101.823 110.395 101.3 109.887 101.278 109.867Z" fill="#6AC1FF"/>
<path d="M284.623 147.972C281.341 147.874 277.777 146.717 277.855 141.436C277.933 136.153 281.763 135.332 282.151 131.379C282.542 127.426 282.56 123.747 284.621 123.709C286.682 123.671 285.378 125.36 286.338 127.192C287.298 129.024 289.158 131.368 288.799 134.795C288.439 138.219 290.873 139.53 290.744 142.331C290.619 145.129 288.873 148.102 284.623 147.972Z" fill="#DAEEFF"/>
<path d="M285.838 134.484C285.78 134.43 285.691 134.435 285.637 134.49C285.584 134.549 285.586 134.638 285.642 134.694C285.651 134.703 286.497 135.555 286.41 138.479C286.334 141.004 285.028 144.912 284.615 146.093C284.226 145.172 283.726 144.158 283.304 143.304C283.018 142.727 282.772 142.228 282.638 141.912C282.152 140.763 282.893 138.349 282.9 138.327C282.924 138.251 282.882 138.17 282.806 138.148C282.73 138.123 282.65 138.166 282.627 138.242C282.596 138.345 281.846 140.781 282.375 142.027C282.511 142.349 282.759 142.85 283.047 143.431C283.818 144.988 284.981 147.341 284.963 148.256C284.938 149.525 284.784 151.348 284.784 151.366C284.778 151.444 284.836 151.513 284.916 151.52C284.921 151.52 284.925 151.52 284.927 151.52C285.001 151.52 285.064 151.464 285.07 151.388C285.072 151.37 285.224 149.538 285.251 148.261C285.26 147.851 285.066 147.214 284.78 146.491C284.97 145.972 286.615 141.364 286.7 138.488C286.79 135.408 285.879 134.52 285.838 134.484Z" fill="#6AC1FF"/>
<path d="M105.988 152.303C104.123 152.791 97.0575 152.504 98.4063 149.012C99.9069 145.129 103.913 148.525 105.63 150.677C104.978 147.243 104.889 143.745 104.9 141.872C103.629 140.342 100.945 130.63 106.233 131.111C113.16 131.741 107.024 140.935 105.427 141.98C105.427 144.221 105.577 148.659 106.59 152.511C106.805 150.064 109.243 143.1 112.481 145.556C117.18 149.118 108.189 153.417 106.827 153.343C107.256 154.748 107.81 156.043 108.533 157.079C109.054 157.824 109.63 158.687 110.228 159.626C110.239 159.638 110.25 159.649 110.259 159.66C110.561 157.083 112.961 150.464 116.132 152.869C120.518 156.193 112.975 160.161 110.844 160.613C112.166 162.767 113.529 165.228 114.578 167.599C114.726 165.27 119.285 160.512 121.096 163.235C122.106 164.751 116.762 169.695 115.002 168.587C116.007 171.046 116.612 173.343 116.403 175.021C116.324 175.638 116.213 176.367 116.083 177.157C117.332 175.775 121.842 171.137 123.184 174.725C124.299 177.7 120.576 179.427 119.013 179.427C117.789 179.427 116.49 178.266 115.983 177.761C115.911 178.188 115.835 178.629 115.757 179.078C115.127 182.74 114.373 187.147 114.594 189.798C115.659 187.728 120.418 179.11 123.184 184.65C124.602 187.491 120.576 189.874 119.013 190.397C117.729 190.827 115.433 190.44 114.65 190.287C114.694 190.587 114.75 190.862 114.828 191.097C115.849 194.159 117.905 197.271 117.928 197.302C118.008 197.423 117.975 197.584 117.856 197.665C117.812 197.694 117.762 197.709 117.711 197.709C117.626 197.709 117.544 197.669 117.495 197.593C117.477 197.566 115.947 195.251 114.851 192.625C113.622 192.471 108.899 191.824 107.542 190.918C105.976 189.874 103.176 186.44 105.456 185.172C108.984 183.208 112.682 188.426 114.301 191.14C113.698 189.115 114.232 185.064 114.859 181.259C113.598 181.637 109.491 180.904 108.062 179.949C106.497 178.904 103.801 176.197 105.454 174.725C109.598 171.035 113.98 178.852 114.947 180.729C115.045 180.136 115.145 179.553 115.244 178.989C115.505 177.472 115.75 176.038 115.887 174.954C116.081 173.397 115.503 171.158 114.469 168.646C113.645 168.907 110.86 169.677 107.801 169.241C104.15 168.717 102.299 165.872 103.629 164.539C105.892 162.273 112.58 166.968 114.306 168.25C113.254 165.778 111.778 163.069 110.161 160.485C108.033 160.98 99.5585 160.799 100.706 157.425C101.852 154.059 106.191 156.323 108.741 158.298C108.531 157.987 108.321 157.678 108.109 157.376C107.14 155.998 106.463 154.204 105.988 152.303Z" fill="url(#paint1_linear_3806_27593)"/>
<path d="M121.094 184.653C125.471 182.899 126.541 189.61 126.773 191.811C127.737 188.601 128.146 184.695 127.711 181.517C127.045 181.501 124.464 181.378 122.659 180.474C120.574 179.43 119.288 175.247 121.094 174.728C124.131 173.858 126.806 179.134 127.619 180.931C127.548 180.526 127.463 180.132 127.36 179.758C126.695 177.314 126.212 174.164 126.005 171.068C125.181 171.052 122.885 170.972 121.617 170.549C120.051 170.026 117.403 165.935 119.531 165.326C122.463 164.487 125.056 168.699 125.964 170.393C125.788 167.165 125.922 164.056 126.469 161.937C126.235 161.007 125.788 159.031 125.788 157.49C125.788 155.401 128.209 151.287 130.482 153.312C134.633 157.009 128.412 161.329 126.92 162.277C126.415 164.362 126.304 167.373 126.485 170.498C127.416 168.149 131.183 159.691 135.696 163.76C137.429 165.324 133.61 168.983 131.002 170.028C128.928 170.858 127.159 171.035 126.52 171.073C126.73 174.115 127.208 177.213 127.865 179.624C127.983 180.06 128.079 180.523 128.157 181.002C129.147 179.005 133.747 170.509 138.825 174.206C140.933 175.743 136.739 179.43 134.653 180.474C132.862 181.371 129.218 181.418 128.222 181.414C128.655 184.581 128.264 188.458 127.324 191.71C128.856 189.388 133.336 183.429 136.739 187.265C138.76 189.543 133.53 191.471 132.045 191.967C130.739 192.404 127.943 192.533 127.056 192.565C126.315 194.808 125.306 196.669 124.129 197.651C124.08 197.692 124.022 197.712 123.961 197.712C123.885 197.712 123.812 197.68 123.76 197.618C123.669 197.508 123.682 197.343 123.794 197.251C124.917 196.314 125.88 194.538 126.59 192.39C125.911 192.106 123.937 191.254 122.657 190.399C121.094 189.352 118.673 185.621 121.094 184.653Z" fill="#F2BE3C"/>
<path d="M109.882 197.712H133.609C133.754 197.712 133.87 197.595 133.87 197.45C133.87 197.305 133.754 197.188 133.609 197.188H109.882C109.737 197.188 109.621 197.305 109.621 197.45C109.621 197.593 109.739 197.712 109.882 197.712Z" fill="#14336A"/>
<path d="M101.54 197.712H107.015C107.16 197.712 107.276 197.595 107.276 197.45C107.276 197.305 107.16 197.188 107.015 197.188H101.54C101.394 197.188 101.278 197.305 101.278 197.45C101.278 197.593 101.394 197.712 101.54 197.712Z" fill="#14336A"/>
<path d="M242.866 195.669H247.046V173.394V171.354V155.481H249.083V171.354H252.245V155.481H254.281V171.354V173.394H252.245H249.083V195.669H253.263C253.826 195.669 254.281 196.126 254.281 196.689C254.281 197.253 253.826 197.709 253.263 197.709H249.083H247.046H242.866C242.303 197.709 241.848 197.253 241.848 196.689C241.848 196.126 242.303 195.669 242.866 195.669Z" fill="#45A184"/>
<path d="M250.409 146.762C259.29 146.762 266.49 148.438 266.49 150.507V152.531C266.49 154.598 259.29 156.276 250.409 156.276C241.528 156.276 234.329 154.6 234.329 152.531V150.507C234.331 148.438 241.531 146.762 250.409 146.762Z" fill="url(#paint2_linear_3806_27593)"/>
<path opacity="0.1" d="M229.442 97.6975C232.479 92.6867 230.885 86.1588 225.883 83.117C220.881 80.0752 214.364 81.6714 211.327 86.6822C208.291 91.6931 209.884 98.221 214.886 101.263C219.889 104.305 226.405 102.708 229.442 97.6975Z" fill="white"/>
<path opacity="0.17" d="M227.055 88.9341C226.674 88.9341 226.318 88.6881 226.198 88.3033C225.82 87.0954 224.999 86.1067 223.88 85.5206C222.761 84.9323 221.482 84.8183 220.276 85.1963C219.802 85.3439 219.298 85.08 219.15 84.6058C219.003 84.1315 219.266 83.626 219.74 83.4784C221.403 82.9572 223.17 83.1182 224.713 83.928C226.256 84.7377 227.393 86.1022 227.913 87.7687C228.06 88.2429 227.797 88.7485 227.323 88.8961C227.234 88.9207 227.145 88.9341 227.055 88.9341Z" fill="#50C6A1"/>
<path d="M216.611 80.0581C209.923 82.1496 206.196 89.2763 208.286 95.9758C210.374 102.675 217.489 106.409 224.177 104.315C230.865 102.223 234.592 95.0967 232.501 88.3972C230.411 81.7 223.297 77.9666 216.611 80.0581ZM223.551 102.32C217.964 104.067 212.022 100.948 210.278 95.3517C208.534 89.755 211.647 83.8027 217.234 82.0556C222.821 80.3086 228.763 83.4269 230.507 89.0236C232.251 94.618 229.138 100.57 223.551 102.32Z" fill="#D0DAED"/>
<path d="M225.107 103.584L222.999 104.244L225.998 113.858L228.106 113.198L225.107 103.584Z" fill="#D0DAED"/>
<path d="M232.432 130.793C231.088 131.213 229.656 130.462 229.237 129.115L224.628 114.336C224.404 113.62 224.802 112.86 225.516 112.638L227.803 111.923C228.518 111.699 229.277 112.097 229.498 112.813L234.107 127.592C234.527 128.939 233.776 130.372 232.432 130.793Z" fill="url(#paint3_linear_3806_27593)"/>
<path d="M233.321 124.302C233.321 124.302 228.574 121.369 227.14 119.852C225.709 118.336 225.101 117.647 225.47 117.325C225.838 117.003 229.846 118.772 230.233 118.472C230.619 118.175 230.282 117.432 230.717 117.099C231.153 116.763 233.739 119.434 234.353 119.231C234.967 119.029 234.036 123.83 233.321 124.302Z" fill="#FFAA9D"/>
<path d="M214.385 178.919L210.904 182.295L202.083 174.117L204.986 169.388L214.385 178.919Z" fill="#FFAA9D"/>
<path d="M211.415 181.798C211.415 181.798 208.985 184.847 208.53 184.852C208.072 184.856 197.889 173.82 197.956 173.464C198.023 173.108 202.469 173.491 202.469 173.491L211.415 181.798Z" fill="url(#paint4_linear_3806_27593)"/>
<path d="M204.443 168.894C204.443 168.894 214.642 179.573 215.035 179.573C215.428 179.573 264.095 142.143 264.095 142.143L243.466 132.976C243.466 132.976 217.27 140.19 204.443 168.894Z" fill="url(#paint5_linear_3806_27593)"/>
<path d="M250.644 172.095L252.368 176.629L241.392 181.532L238.194 176.998L250.644 172.095Z" fill="#FFAA9D"/>
<path d="M241.86 132.976C241.86 132.976 224.637 136.575 223.145 142.418C221.653 148.261 223.009 154.645 227.756 162.116C232.504 169.587 237.332 177.716 238.325 177.98C238.325 177.98 251.078 172.862 251.367 172.225C251.655 171.587 244.225 154.001 244.225 154.001C244.225 154.001 259.368 152.992 262.898 144.051L241.86 132.976Z" fill="url(#paint6_linear_3806_27593)"/>
<path d="M240.654 132.925C240.498 133.942 259.312 145.747 262.641 145.176C265.971 144.606 270.278 130.838 269.086 120.557C267.895 110.276 258.702 102.566 254.51 102.926C250.319 103.286 248.075 107.223 247.503 113.484C246.67 122.666 240.831 131.791 240.654 132.925Z" fill="url(#paint7_linear_3806_27593)"/>
<path d="M256.391 104.505C258.609 104.313 266.239 108.795 268.023 122.02C269.807 135.244 262.517 136.354 256.391 135.499C250.264 134.645 234.849 127.069 232.589 124.36C232.589 124.36 232.102 120.098 233.741 118.591C233.741 118.591 248.611 120.107 252.474 121.266C256.335 122.427 247.984 105.237 256.391 104.505Z" fill="url(#paint8_linear_3806_27593)"/>
<path d="M252.112 175.965C252.112 175.965 253.952 179.401 253.778 179.823C253.604 180.246 239.464 185.279 239.165 185.078C238.866 184.876 240.965 180.933 240.965 180.933L252.112 175.965Z" fill="url(#paint9_linear_3806_27593)"/>
<path d="M243.936 95.9154L243.864 100.642L244.568 100.62C244.568 100.62 245.133 104.532 247.89 103.915C248.683 103.738 249.695 103.065 249.985 103.199C250.331 103.358 250.481 104.429 250.559 104.738C250.858 105.921 254.996 104.724 254.326 103.512C253.69 102.36 252.74 100.787 252.941 100.349C253.643 98.8256 253.841 95.0408 250.039 93.777C247.008 92.7704 243.969 94.2959 243.936 95.9154Z" fill="#FFAA9D"/>
<path d="M254.326 103.512C253.689 102.36 252.74 100.787 252.941 100.349C252.941 100.349 251.345 102.81 249.871 103.181C249.869 103.181 249.866 103.183 249.864 103.183C249.911 103.181 249.956 103.181 249.987 103.197C250.333 103.355 250.483 104.427 250.561 104.736C250.858 105.921 254.996 104.724 254.326 103.512Z" fill="#FF9F91"/>
<path d="M250.315 98.2329C252.093 97.9286 250.987 101.895 252.946 101.763C254.904 101.631 256.269 97.3426 254.831 94.0365C253.392 90.7304 250.661 90.9138 248.055 91.3656C245.452 91.8175 242.259 92.9963 242.261 94.9692C242.265 99.7159 247.875 95.7343 248.245 97.1614C248.531 98.2664 248.973 101.458 247.83 101.532C246.687 101.606 245.523 100.662 244.621 100.904C244.101 101.042 242.672 107.27 246.41 107.478C250.108 107.684 251.043 104.413 250.264 101.745C249.523 99.2059 249.449 98.3805 250.315 98.2329Z" fill="#14336A"/>
</g>
<defs>
<linearGradient id="paint0_linear_3806_27593" x1="163" y1="28.4982" x2="163" y2="111.636" gradientUnits="userSpaceOnUse">
<stop stop-color="#E9F3FC"/>
<stop offset="1" stop-color="white"/>
</linearGradient>
<linearGradient id="paint1_linear_3806_27593" x1="109.934" y1="158.749" x2="115.899" y2="191.623" gradientUnits="userSpaceOnUse">
<stop stop-color="#3162DF"/>
<stop offset="0.9649" stop-color="#173DB8"/>
</linearGradient>
<linearGradient id="paint2_linear_3806_27593" x1="250.081" y1="147.891" x2="251.088" y2="158.943" gradientUnits="userSpaceOnUse">
<stop stop-color="#58CFAA"/>
<stop offset="0.9727" stop-color="#45A184"/>
</linearGradient>
<linearGradient id="paint3_linear_3806_27593" x1="226.284" y1="111.081" x2="230.992" y2="126.124" gradientUnits="userSpaceOnUse">
<stop stop-color="#58CFAA"/>
<stop offset="0.9727" stop-color="#45A184"/>
</linearGradient>
<linearGradient id="paint4_linear_3806_27593" x1="205.652" y1="176.418" x2="203.46" y2="179.148" gradientUnits="userSpaceOnUse">
<stop stop-color="#14336D"/>
<stop offset="0.9662" stop-color="#0E2253"/>
</linearGradient>
<linearGradient id="paint5_linear_3806_27593" x1="215.162" y1="166.194" x2="230.462" y2="153.889" gradientUnits="userSpaceOnUse">
<stop stop-color="#14336D"/>
<stop offset="0.9662" stop-color="#0E2253"/>
</linearGradient>
<linearGradient id="paint6_linear_3806_27593" x1="237.057" y1="154.377" x2="263.883" y2="164.09" gradientUnits="userSpaceOnUse">
<stop stop-color="#14336D"/>
<stop offset="0.9662" stop-color="#0E2253"/>
</linearGradient>
<linearGradient id="paint7_linear_3806_27593" x1="246.405" y1="109.36" x2="259.928" y2="134.645" gradientUnits="userSpaceOnUse">
<stop stop-color="#3162DF"/>
<stop offset="0.9649" stop-color="#173DB8"/>
</linearGradient>
<linearGradient id="paint8_linear_3806_27593" x1="250.404" y1="121.597" x2="265.779" y2="153.956" gradientUnits="userSpaceOnUse">
<stop stop-color="#3162DF"/>
<stop offset="0.9649" stop-color="#173DB8"/>
</linearGradient>
<linearGradient id="paint9_linear_3806_27593" x1="244.907" y1="179.153" x2="246.559" y2="182.241" gradientUnits="userSpaceOnUse">
<stop stop-color="#14336D"/>
<stop offset="0.9662" stop-color="#0E2253"/>
</linearGradient>
<clipPath id="clip0_3806_27593">
<rect width="326" height="200" fill="white"/>
</clipPath>
</defs>
</svg>
